<mxfile host="app.diagrams.net" modified="2023-09-17T23:55:28.306Z" agent="Mozilla/5.0 (Windows NT 10.0; Win64; x64) AppleWebKit/537.36 (KHTML, like Gecko) Chrome/114.0.0.0 Safari/537.36" etag="wMX0SqCKpTZ9dDjxa2bw" version="21.7.4" type="device">
  <diagram name="Page-1" id="rKVEW-knQRWvkWFFTP-U">
    <mxGraphModel dx="845" dy="443" grid="1" gridSize="10" guides="1" tooltips="1" connect="1" arrows="1" fold="1" page="1" pageScale="1" pageWidth="850" pageHeight="1100" math="0" shadow="0">
      <root>
        <mxCell id="0" />
        <mxCell id="1" parent="0" />
        <mxCell id="_As3eM5tqqZtwjEKahkg-3" value="AWS Cloud" style="sketch=0;outlineConnect=0;html=1;whiteSpace=wrap;fontSize=12;fontStyle=1;shape=mxgraph.aws4.group;grIcon=mxgraph.aws4.group_aws_cloud;strokeColor=#6c8ebf;fillColor=#dae8fc;verticalAlign=top;align=left;spacingLeft=30;dashed=0;" vertex="1" parent="1">
          <mxGeometry x="40" y="40" width="400" height="240" as="geometry" />
        </mxCell>
        <mxCell id="_As3eM5tqqZtwjEKahkg-13" value="" style="rounded=1;whiteSpace=wrap;html=1;fillColor=#fff2cc;strokeColor=#d6b656;fontStyle=1" vertex="1" parent="1">
          <mxGeometry x="168.5" y="50" width="150" height="160" as="geometry" />
        </mxCell>
        <mxCell id="_As3eM5tqqZtwjEKahkg-10" style="edgeStyle=orthogonalEdgeStyle;rounded=0;orthogonalLoop=1;jettySize=auto;html=1;exitX=1;exitY=0.25;exitDx=0;exitDy=0;exitPerimeter=0;entryX=0;entryY=0.25;entryDx=0;entryDy=0;entryPerimeter=0;fontStyle=1" edge="1" parent="1" source="_As3eM5tqqZtwjEKahkg-4" target="_As3eM5tqqZtwjEKahkg-6">
          <mxGeometry relative="1" as="geometry" />
        </mxCell>
        <mxCell id="_As3eM5tqqZtwjEKahkg-4" value="" style="sketch=0;points=[[0,0,0],[0.25,0,0],[0.5,0,0],[0.75,0,0],[1,0,0],[0,1,0],[0.25,1,0],[0.5,1,0],[0.75,1,0],[1,1,0],[0,0.25,0],[0,0.5,0],[0,0.75,0],[1,0.25,0],[1,0.5,0],[1,0.75,0]];points=[[0,0,0],[0.25,0,0],[0.5,0,0],[0.75,0,0],[1,0,0],[0,1,0],[0.25,1,0],[0.5,1,0],[0.75,1,0],[1,1,0],[0,0.25,0],[0,0.5,0],[0,0.75,0],[1,0.25,0],[1,0.5,0],[1,0.75,0]];outlineConnect=0;fontColor=#232F3E;fillColor=#E7157B;strokeColor=#ffffff;dashed=0;verticalLabelPosition=bottom;verticalAlign=top;align=center;html=1;fontSize=12;fontStyle=1;aspect=fixed;shape=mxgraph.aws4.resourceIcon;resIcon=mxgraph.aws4.cloudformation;" vertex="1" parent="1">
          <mxGeometry x="59.5" y="102" width="78" height="78" as="geometry" />
        </mxCell>
        <mxCell id="_As3eM5tqqZtwjEKahkg-5" value="CloudFormation" style="text;html=1;strokeColor=none;fillColor=none;align=center;verticalAlign=middle;whiteSpace=wrap;rounded=0;fontSize=14;fontStyle=1" vertex="1" parent="1">
          <mxGeometry x="52.5" y="180" width="92" height="30" as="geometry" />
        </mxCell>
        <mxCell id="_As3eM5tqqZtwjEKahkg-11" style="edgeStyle=orthogonalEdgeStyle;rounded=0;orthogonalLoop=1;jettySize=auto;html=1;exitX=0;exitY=0.75;exitDx=0;exitDy=0;exitPerimeter=0;entryX=1;entryY=0.75;entryDx=0;entryDy=0;entryPerimeter=0;fontStyle=1" edge="1" parent="1" source="_As3eM5tqqZtwjEKahkg-6" target="_As3eM5tqqZtwjEKahkg-4">
          <mxGeometry relative="1" as="geometry" />
        </mxCell>
        <mxCell id="_As3eM5tqqZtwjEKahkg-12" style="edgeStyle=orthogonalEdgeStyle;rounded=0;orthogonalLoop=1;jettySize=auto;html=1;exitX=1;exitY=0.5;exitDx=0;exitDy=0;exitPerimeter=0;entryX=0;entryY=0.5;entryDx=0;entryDy=0;entryPerimeter=0;fontStyle=1" edge="1" parent="1" source="_As3eM5tqqZtwjEKahkg-6" target="_As3eM5tqqZtwjEKahkg-7">
          <mxGeometry relative="1" as="geometry" />
        </mxCell>
        <mxCell id="_As3eM5tqqZtwjEKahkg-6" value="" style="sketch=0;points=[[0,0,0],[0.25,0,0],[0.5,0,0],[0.75,0,0],[1,0,0],[0,1,0],[0.25,1,0],[0.5,1,0],[0.75,1,0],[1,1,0],[0,0.25,0],[0,0.5,0],[0,0.75,0],[1,0.25,0],[1,0.5,0],[1,0.75,0]];outlineConnect=0;fontColor=#232F3E;fillColor=#ED7100;strokeColor=#ffffff;dashed=0;verticalLabelPosition=bottom;verticalAlign=top;align=center;html=1;fontSize=12;fontStyle=1;aspect=fixed;shape=mxgraph.aws4.resourceIcon;resIcon=mxgraph.aws4.lambda;" vertex="1" parent="1">
          <mxGeometry x="204.5" y="102" width="78" height="78" as="geometry" />
        </mxCell>
        <mxCell id="_As3eM5tqqZtwjEKahkg-7" value="" style="sketch=0;points=[[0,0,0],[0.25,0,0],[0.5,0,0],[0.75,0,0],[1,0,0],[0,1,0],[0.25,1,0],[0.5,1,0],[0.75,1,0],[1,1,0],[0,0.25,0],[0,0.5,0],[0,0.75,0],[1,0.25,0],[1,0.5,0],[1,0.75,0]];outlineConnect=0;fontColor=#232F3E;fillColor=#7AA116;strokeColor=#ffffff;dashed=0;verticalLabelPosition=bottom;verticalAlign=top;align=center;html=1;fontSize=12;fontStyle=1;aspect=fixed;shape=mxgraph.aws4.resourceIcon;resIcon=mxgraph.aws4.s3;" vertex="1" parent="1">
          <mxGeometry x="347" y="102" width="78" height="78" as="geometry" />
        </mxCell>
        <mxCell id="_As3eM5tqqZtwjEKahkg-8" value="S3" style="text;html=1;strokeColor=none;fillColor=none;align=center;verticalAlign=middle;whiteSpace=wrap;rounded=0;fontSize=14;fontStyle=1" vertex="1" parent="1">
          <mxGeometry x="367.5" y="180" width="37" height="30" as="geometry" />
        </mxCell>
        <mxCell id="_As3eM5tqqZtwjEKahkg-9" value="Lambda" style="text;html=1;strokeColor=none;fillColor=none;align=center;verticalAlign=middle;whiteSpace=wrap;rounded=0;fontSize=14;fontStyle=1" vertex="1" parent="1">
          <mxGeometry x="198" y="180" width="92" height="30" as="geometry" />
        </mxCell>
        <mxCell id="_As3eM5tqqZtwjEKahkg-14" value="Custom Resource Create S3 Folders&lt;br style=&quot;font-size: 14px;&quot;&gt;" style="text;html=1;strokeColor=none;fillColor=none;align=center;verticalAlign=middle;whiteSpace=wrap;rounded=0;fontSize=14;fontStyle=1" vertex="1" parent="1">
          <mxGeometry x="178.5" y="60" width="130" height="30" as="geometry" />
        </mxCell>
        <mxCell id="_As3eM5tqqZtwjEKahkg-17" value="CustomResource Inputs:&lt;br style=&quot;font-size: 13px;&quot;&gt;- &quot;&lt;b&gt;folderName&lt;/b&gt;&quot;&lt;br style=&quot;font-size: 13px;&quot;&gt;- &quot;&lt;b&gt;bucketName&lt;/b&gt;&quot;" style="text;html=1;strokeColor=none;fillColor=none;align=center;verticalAlign=middle;whiteSpace=wrap;rounded=0;fontSize=13;fontStyle=0" vertex="1" parent="1">
          <mxGeometry x="163.5" y="220" width="160" height="50" as="geometry" />
        </mxCell>
      </root>
    </mxGraphModel>
  </diagram>
</mxfile>
